<svg xmlns="http://www.w3.org/2000/svg" viewBox="0 0 1400 788" role="img" aria-labelledby="title desc">
  <title id="title">EgCenterMgmt product overview</title>
  <desc id="desc">Stylized enterprise dashboard showing sales, finance, attendance, inventory and point-of-sale modules.</desc>
  <defs>
    <linearGradient id="bg" x1="0" y1="0" x2="1" y2="1"><stop stop-color="#07111f"/><stop offset=".55" stop-color="#0c2039"/><stop offset="1" stop-color="#0b3b43"/></linearGradient>
    <linearGradient id="accent" x1="0" y1="0" x2="1" y2="1"><stop stop-color="#1476ff"/><stop offset="1" stop-color="#35d6d0"/></linearGradient>
    <linearGradient id="green" x1="0" y1="0" x2="1" y2="1"><stop stop-color="#35d6d0"/><stop offset="1" stop-color="#8add35"/></linearGradient>
    <filter id="shadow"><feDropShadow dx="0" dy="28" stdDeviation="26" flood-color="#000" flood-opacity=".36"/></filter>
  </defs>
  <rect width="1400" height="788" rx="40" fill="url(#bg)"/>
  <g opacity=".22" stroke="#5fc8ff" stroke-width="2" fill="none">
    <path d="M30 150C300 30 450 200 680 100S1120 30 1370 150"/>
    <path d="M-20 250C260 130 510 340 760 230s420-100 680 20"/>
    <circle cx="140" cy="150" r="7" fill="#35d6d0"/><circle cx="680" cy="100" r="7" fill="#38a7ff"/><circle cx="1220" cy="100" r="7" fill="#8add35"/>
  </g>
  <g transform="translate(78 94)">
    <rect width="142" height="142" rx="38" fill="#0e2038" stroke="#ffffff" stroke-opacity=".10"/>
    <path d="M29 43h62c15 0 26 9 26 22 0 10-6 18-16 21 13 3 20 12 20 24 0 16-12 27-31 27H29V43Zm31 27v19h28c6 0 9-4 9-10 0-6-3-9-9-9H60Zm0 40v20h31c6 0 10-4 10-10 0-7-4-10-10-10H60Z" fill="url(#accent)"/>
    <path d="M94 54c-28 0-49 20-49 47 0 28 21 48 49 48 20 0 36-9 44-24l-25-12c-4 7-10 11-19 11-13 0-22-9-22-23 0-13 9-22 22-22 8 0 15 4 19 10l25-12c-9-14-24-23-44-23Z" fill="url(#green)" opacity=".96"/>
    <text x="0" y="190" fill="#fff" font-family="Segoe UI,Arial,sans-serif" font-size="54" font-weight="800">EgCenter<tspan fill="#61df8b">Mgmt</tspan></text>
    <text x="0" y="235" fill="#9eb3c9" font-family="Segoe UI,Arial,sans-serif" font-size="25">Manage • Operate • Grow</text>
    <text x="0" y="332" fill="#fff" font-family="Segoe UI,Arial,sans-serif" font-size="55" font-weight="800">All-in-One Business</text>
    <text x="0" y="398" fill="#55d7b7" font-family="Segoe UI,Arial,sans-serif" font-size="55" font-weight="800">Management Platform</text>
    <text x="0" y="450" fill="#b6c8da" font-family="Segoe UI,Arial,sans-serif" font-size="24">Registration, attendance, collections, finance,</text>
    <text x="0" y="484" fill="#b6c8da" font-family="Segoe UI,Arial,sans-serif" font-size="24">inventory, POS and reporting in one workspace.</text>
    <g transform="translate(0 545)" font-family="Segoe UI,Arial,sans-serif" font-size="18" font-weight="700" fill="#fff">
      <g><rect width="118" height="86" rx="18" fill="#12305b"/><circle cx="27" cy="29" r="12" fill="#38a7ff"/><text x="18" y="68">Sales</text></g>
      <g transform="translate(132)"><rect width="118" height="86" rx="18" fill="#113c36"/><circle cx="27" cy="29" r="12" fill="#67df5c"/><text x="15" y="68">Finance</text></g>
      <g transform="translate(264)"><rect width="142" height="86" rx="18" fill="#31265b"/><circle cx="27" cy="29" r="12" fill="#a36cff"/><text x="14" y="68">Attendance</text></g>
      <g transform="translate(420)"><rect width="132" height="86" rx="18" fill="#5a3214"/><circle cx="27" cy="29" r="12" fill="#ff9d2f"/><text x="14" y="68">Inventory</text></g>
      <g transform="translate(566)"><rect width="100" height="86" rx="18" fill="#123d43"/><circle cx="27" cy="29" r="12" fill="#35d6d0"/><text x="20" y="68">POS</text></g>
    </g>
  </g>
  <g transform="translate(755 104)" filter="url(#shadow)">
    <rect width="578" height="520" rx="28" fill="#f8fbff"/>
    <rect width="118" height="520" rx="28" fill="#0d1f37"/>
    <rect x="16" y="70" width="86" height="38" rx="10" fill="#1476ff"/>
    <g fill="#8ea9c2" font-family="Segoe UI,Arial,sans-serif" font-size="14">
      <text x="25" y="95" fill="#fff">Dashboard</text><text x="25" y="142">Sales</text><text x="25" y="178">Finance</text><text x="25" y="214">Attendance</text><text x="25" y="250">Inventory</text><text x="25" y="286">POS</text><text x="25" y="322">Customers</text><text x="25" y="358">Reports</text>
    </g>
    <text x="146" y="48" fill="#0d1f37" font-family="Segoe UI,Arial,sans-serif" font-size="26" font-weight="800">Dashboard</text>
    <g transform="translate(145 78)" font-family="Segoe UI,Arial,sans-serif">
      <g><rect width="94" height="78" rx="14" fill="#edf5ff"/><text x="12" y="25" fill="#6e86a0" font-size="12">Sales</text><text x="12" y="52" fill="#0d1f37" font-size="19" font-weight="800">45,231</text></g>
      <g transform="translate(105)"><rect width="94" height="78" rx="14" fill="#eefbf6"/><text x="12" y="25" fill="#6e86a0" font-size="12">Profit</text><text x="12" y="52" fill="#0d1f37" font-size="19" font-weight="800">12,321</text></g>
      <g transform="translate(210)"><rect width="94" height="78" rx="14" fill="#f7f2ff"/><text x="12" y="25" fill="#6e86a0" font-size="12">Orders</text><text x="12" y="52" fill="#0d1f37" font-size="19" font-weight="800">1,842</text></g>
      <g transform="translate(315)"><rect width="94" height="78" rx="14" fill="#fff7ec"/><text x="12" y="25" fill="#6e86a0" font-size="12">Customers</text><text x="12" y="52" fill="#0d1f37" font-size="19" font-weight="800">256</text></g>
    </g>
    <g transform="translate(145 186)">
      <rect width="274" height="176" rx="18" fill="#fff" stroke="#dfe8f3"/>
      <text x="18" y="31" fill="#0d1f37" font-family="Segoe UI,Arial,sans-serif" font-size="15" font-weight="700">Activity overview</text>
      <g transform="translate(28 55)" fill="#b8d6ff"><rect x="0" y="68" width="18" height="62" rx="5"/><rect x="38" y="40" width="18" height="90" rx="5"/><rect x="76" y="54" width="18" height="76" rx="5"/><rect x="114" y="18" width="18" height="112" rx="5"/><rect x="152" y="47" width="18" height="83" rx="5"/><rect x="190" y="29" width="18" height="101" rx="5"/></g>
      <polyline points="29,132 67,109 105,122 143,80 181,102 219,77" fill="none" stroke="#1476ff" stroke-width="5" stroke-linecap="round" stroke-linejoin="round"/>
    </g>
    <g transform="translate(435 186)"><rect width="118" height="176" rx="18" fill="#fff" stroke="#dfe8f3"/><text x="14" y="31" fill="#0d1f37" font-family="Segoe UI,Arial,sans-serif" font-size="14" font-weight="700">Attendance</text><circle cx="59" cy="91" r="38" fill="none" stroke="#e4edf5" stroke-width="13"/><path d="M59 53a38 38 0 1 1-32 58" fill="none" stroke="#35d6d0" stroke-width="13" stroke-linecap="round"/><text x="39" y="98" fill="#0d1f37" font-family="Segoe UI,Arial,sans-serif" font-size="20" font-weight="800">85%</text></g>
    <g transform="translate(145 382)"><rect width="408" height="102" rx="18" fill="#fff" stroke="#dfe8f3"/><text x="18" y="29" fill="#0d1f37" font-family="Segoe UI,Arial,sans-serif" font-size="14" font-weight="700">Recent activity</text><rect x="18" y="45" width="372" height="9" rx="5" fill="#edf3f8"/><rect x="18" y="65" width="306" height="9" rx="5" fill="#edf3f8"/><rect x="18" y="85" width="344" height="9" rx="5" fill="#edf3f8"/></g>
  </g>
  <path d="M733 650h630l-60 71H799Z" fill="#8794a6" opacity=".9"/><path d="M807 721h470" stroke="#c6cfda" stroke-width="7" stroke-linecap="round"/>
</svg>